<svg width="64" height="64" viewBox="0 0 64 64" fill="none" xmlns="http://www.w3.org/2000/svg">
  <circle cx="32" cy="32" r="30" fill="#0B1220"/>
  <path d="M18 18c3-5 8-8 14-8s11 3 14 8l-4 6 7 5c-1 13-10 23-17 27-7-4-16-14-17-27l7-5-4-6Z" fill="#25D7E5"/>
  <circle cx="24" cy="27" r="4" fill="#08111A"/>
  <circle cx="40" cy="27" r="4" fill="#08111A"/>
  <path d="M28 33c2-2 6-2 8 0" stroke="#08111A" stroke-width="2.5" stroke-linecap="round"/>
  <path d="M32 34.5c1.5 0 2.7 1.1 2.7 2.4 0 1.3-1.2 2.4-2.7 2.4s-2.7-1.1-2.7-2.4c0-1.3 1.2-2.4 2.7-2.4Z" fill="#08111A"/>
</svg>
